<svg width="35" height="35" viewBox="0 0 35 35" fill="none" xmlns="http://www.w3.org/2000/svg">
<path d="M32.3077 0H2.69231C1.97826 0 1.29346 0.283653 0.788559 0.788559C0.283653 1.29346 0 1.97826 0 2.69231V32.3077C0 33.0217 0.283653 33.7065 0.788559 34.2114C1.29346 34.7163 1.97826 35 2.69231 35H32.3077C33.0217 35 33.7065 34.7163 34.2114 34.2114C34.7163 33.7065 35 33.0217 35 32.3077V2.69231C35 1.97826 34.7163 1.29346 34.2114 0.788559C33.7065 0.283653 33.0217 0 32.3077 0ZM32.3077 32.3077H2.69231V2.69231H32.3077V32.3077ZM12.1154 14.8077V25.5769C12.1154 25.9339 11.9736 26.2763 11.7211 26.5288C11.4687 26.7813 11.1263 26.9231 10.7692 26.9231C10.4122 26.9231 10.0698 26.7813 9.81736 26.5288C9.5649 26.2763 9.42308 25.9339 9.42308 25.5769V14.8077C9.42308 14.4507 9.5649 14.1083 9.81736 13.8558C10.0698 13.6034 10.4122 13.4615 10.7692 13.4615C11.1263 13.4615 11.4687 13.6034 11.7211 13.8558C11.9736 14.1083 12.1154 14.4507 12.1154 14.8077ZM26.9231 19.5192V25.5769C26.9231 25.9339 26.7813 26.2763 26.5288 26.5288C26.2763 26.7813 25.9339 26.9231 25.5769 26.9231C25.2199 26.9231 24.8775 26.7813 24.625 26.5288C24.3726 26.2763 24.2308 25.9339 24.2308 25.5769V19.5192C24.2308 18.6267 23.8762 17.7707 23.2451 17.1395C22.6139 16.5084 21.7579 16.1538 20.8654 16.1538C19.9728 16.1538 19.1168 16.5084 18.4857 17.1395C17.8546 17.7707 17.5 18.6267 17.5 19.5192V25.5769C17.5 25.9339 17.3582 26.2763 17.1057 26.5288C16.8533 26.7813 16.5109 26.9231 16.1538 26.9231C15.7968 26.9231 15.4544 26.7813 15.202 26.5288C14.9495 26.2763 14.8077 25.9339 14.8077 25.5769V14.8077C14.8094 14.478 14.932 14.1603 15.1523 13.915C15.3727 13.6697 15.6754 13.5138 16.003 13.4768C16.3307 13.4399 16.6605 13.5245 16.9299 13.7146C17.1994 13.9047 17.3896 14.1871 17.4647 14.5082C18.3753 13.8904 19.437 13.5324 20.5358 13.4725C21.6346 13.4126 22.7289 13.6532 23.7013 14.1684C24.6737 14.6835 25.4874 15.4538 26.055 16.3966C26.6226 17.3393 26.9227 18.4188 26.9231 19.5192ZM12.7885 10.0962C12.7885 10.4955 12.67 10.8859 12.4482 11.218C12.2263 11.55 11.9109 11.8088 11.542 11.9617C11.173 12.1145 10.767 12.1545 10.3753 12.0766C9.98361 11.9987 9.62381 11.8064 9.34142 11.524C9.05902 11.2416 8.86671 10.8818 8.7888 10.4901C8.71089 10.0984 8.75087 9.69239 8.9037 9.32343C9.05654 8.95446 9.31535 8.6391 9.64741 8.41722C9.97947 8.19535 10.3699 8.07692 10.7692 8.07692C11.3048 8.07692 11.8184 8.28966 12.197 8.66834C12.5757 9.04702 12.7885 9.56062 12.7885 10.0962Z" fill="#FFF9F0"/>
</svg>
