<svg width="42" height="32" viewBox="0 0 42 32" fill="none" xmlns="http://www.w3.org/2000/svg">
<path d="M40 0H1.6C1.17565 0 0.768687 0.168571 0.468629 0.468629C0.168571 0.768688 0 1.17565 0 1.6V28.8C0 29.6487 0.337142 30.4626 0.937258 31.0627C1.53737 31.6629 2.35131 32 3.2 32H38.4C39.2487 32 40.0626 31.6629 40.6627 31.0627C41.2629 30.4626 41.6 29.6487 41.6 28.8V1.6C41.6 1.17565 41.4314 0.768688 41.1314 0.468629C40.8313 0.168571 40.4243 0 40 0ZM35.886 3.2L20.8 17.03L5.714 3.2H35.886ZM38.4 28.8H3.2V5.238L19.718 20.38C20.0132 20.651 20.3993 20.8013 20.8 20.8013C21.2007 20.8013 21.5868 20.651 21.882 20.38L38.4 5.238V28.8Z" fill="#FFF9F0"/>
</svg>
