<svg width="32" height="32" viewBox="0 0 32 32" fill="none" xmlns="http://www.w3.org/2000/svg">
<path d="M30.4594 21.5134L22.9218 18.1358L22.901 18.1262C22.5097 17.9588 22.0828 17.8917 21.659 17.9308C21.2352 17.9699 20.8278 18.114 20.4738 18.3502C20.432 18.3777 20.392 18.4076 20.3538 18.4398L16.4593 21.7598C13.9921 20.5614 11.4449 18.0334 10.2465 15.5982L13.5713 11.6446C13.6033 11.6046 13.6337 11.5646 13.6625 11.5214C13.8936 11.1682 14.0338 10.7635 14.0707 10.3431C14.1075 9.92267 14.0398 9.49968 13.8737 9.11174V9.09254L10.4865 1.54209C10.2669 1.03531 9.88924 0.613145 9.40998 0.33862C8.93072 0.0640957 8.37552 -0.0480666 7.82727 0.0188764C5.65921 0.304169 3.66913 1.36892 2.22872 3.01425C0.788319 4.65958 -0.00390552 6.77299 1.44779e-05 8.95974C1.44779e-05 21.6638 10.3361 31.9999 23.0402 31.9999C25.2269 32.0038 27.3403 31.2116 28.9857 29.7712C30.631 28.3308 31.6957 26.3407 31.981 24.1726C32.0481 23.6246 31.9362 23.0695 31.662 22.5903C31.3877 22.111 30.9659 21.7333 30.4594 21.5134ZM23.0402 29.4399C17.6103 29.434 12.4046 27.2743 8.56508 23.4348C4.72559 19.5954 2.56596 14.3896 2.56003 8.95974C2.55401 7.39731 3.11692 5.88611 4.14362 4.70836C5.17033 3.53061 6.59063 2.76684 8.13927 2.55969C8.13863 2.56608 8.13863 2.57251 8.13927 2.57889L11.4993 10.0989L8.19207 14.0574C8.15844 14.0959 8.12794 14.1371 8.10087 14.1806C7.86009 14.55 7.71884 14.9755 7.69081 15.4156C7.66278 15.8557 7.74891 16.2956 7.94087 16.6926C9.39048 19.6574 12.3777 22.6222 15.3745 24.0702C15.7745 24.2604 16.2169 24.3436 16.6586 24.3116C17.1003 24.2796 17.5261 24.1336 17.8945 23.8878C17.9357 23.8603 17.9752 23.8304 18.0129 23.7982L21.9026 20.4798L29.4226 23.8478H29.4402C29.2356 25.3987 28.473 26.8218 27.295 27.8511C26.117 28.8803 24.6044 29.4452 23.0402 29.4399Z" fill="#FFF9F0"/>
</svg>
